<?xml version="1.0" encoding="utf-8"?>
<!-- Generator: Adobe Illustrator 22.0.0, SVG Export Plug-In . SVG Version: 6.00 Build 0)  -->
<svg version="1.1" id="Layer_1" xmlns="http://www.w3.org/2000/svg" xmlns:xlink="http://www.w3.org/1999/xlink" x="0px" y="0px"
	 viewBox="0 0 380 480" style="enable-background:new 0 0 380 480;" xml:space="preserve">
<style type="text/css">
	.st0{fill:#57331F;}
	.st1{fill:#191847;}
	.st2{fill:#111314;}
	.st3{fill:#3D2216;}
	.st4{fill:#E4E4E4;}
	.st5{fill:#222831;}
	.st6{fill:#03876E;}
	.st7{fill:#DDE3E9;}
	.st8{fill:#06B291;}
</style>
<title>humaaans/standing-15</title>
<desc>Created with Sketch.</desc>
<g id="Head_x2F_Front_x2F_Pony" transform="translate(204.118188, 79.110322) rotate(20.000000) translate(-204.118188, -79.110322) translate(130.369247, 22.827274)">
	<g id="Head" transform="translate(58.494090, 33.579940)">
		<path class="st0" d="M33,27.5c-5-5.9-8.4-13-7.8-21.1c1.6-23.2,33.9-18.1,40.2-6.4s5.5,41.4-2.6,43.5c-3.2,0.8-10.1-1.2-17.1-5.4
			l4.4,31.1l-26,0L33,27.5z"/>
	</g>
	<path id="hair" class="st1" d="M100.5,59.5c-3.2,6.2-7.7,10.8-12.1,10.8c-8.5,0-14.5-11.3-14.5-23.5c0-0.4,0-0.9,0-1.3
		C65,51.7,58.1,63.8,46.3,63.8c-16.1,0-22.5-32.5,0-32.5c15.3,0,22.8,2.2,29.3,5.5c1.3-3.6,3.2-6.6,5.6-8.8c0.6-0.6,1.5-1.3,2.6-1.8
		c0.7-0.4,1.4-0.7,2.2-0.9c3.9-1.4,9.6-2.5,15.9-2.7c1.2,0,2.3-0.1,3.5,0c0-6,4.9-10.8,10.8-10.8c6,0,10.8,4.8,10.8,10.8
		c0,5.8-4.5,10.5-10.2,10.8c-3.3,1-7.5,1.7-12.1,2.1c0.5,1.7,0.7,3.6,0.7,5.8c0,1.9-0.2,4-0.6,6c-1-1.2-2.4-2-3.7-2
		c-3.8,0-6.5,3.2-6.5,6.5C94.5,56.2,97,59.2,100.5,59.5z"/>
</g>
<path id="Skirt-Shadow" class="st2" d="M131.5,327.5c26,7.3,48.4,10.9,67.3,10.9s36.4-5.6,52.5-16.8c-25.4-7.5-46.4-11.2-62.8-11.2
	S153,316.1,131.5,327.5z"/>
<path id="Leg" class="st3" d="M221.3,348.9c-0.3-0.4-0.5-0.8-0.6-1.2c-3.5-9.2-59.1-108.3-64.7-126.4h62.6
	c4.2,13.8,23.2,100.2,25.9,117.5c8.4,27.2,25.8,115.3,28,121.4c2.3,6.4-10.8,13.1-14.3,5.2c-5.6-12.6-18.8-47.3-24.7-68.5
	C228,376.9,223.5,359,221.3,348.9z"/>
<path id="Leg_1_" class="st0" d="M170,361c-25.4,6.4-118.5,18.1-124.9,19.9c-6.6,1.9-12.3-11.7-4.2-14.6
	c12.9-4.7,48.5-15.4,70.1-19.8c17.4-3.5,33.2-6.4,43.8-8.1c-0.9-29.9-5-101.6-2.3-117H208c-2.6,14.8-24.5,123.2-28.5,134
	C178.2,359.2,174.3,360.9,170,361z"/>
<g id="Accessories_x2F_Shoe_x2F_Flat-Sneaker" transform="translate(26.538985, 170.066150) rotate(80.000000) translate(-26.538985, -170.066150) translate(-6.499343, 148.401672)">
	<path id="shoe" class="st4" d="M225.3,40.3c-1.2,3.2-1.8,5.7-1.8,7.3c0,2,0.3,4.8,1,8.6c2.3,0,22.6,0,61.1,0
		c1.6-5.2,0.7-8.1-2.7-8.5c-3.4-0.4-6.3-0.8-8.5-1.1l-28.4-12.7c-0.5-0.2-1.2,0-1.4,0.5c0,0,0,0,0,0l-1.8,4.4
		c-3.2,1.5-5.7,2.2-7.7,2.2c-1.6,0-3.8-0.6-6.7-1.9v0c-1.1-0.5-2.4,0-2.9,1.1C225.3,40.2,225.3,40.3,225.3,40.3z"/>
</g>
<g id="Accessories_x2F_Shoe_x2F_Flat-Sneaker_1_" transform="translate(225.310568, 215.561553)">
	<path id="shoe_1_" class="st4" d="M28.9,248.8c-1.2,3.2-1.8,5.7-1.8,7.3c0,2,0.3,4.8,1,8.6c2.3,0,22.6,0,61.1,0
		c1.6-5.2,0.7-8.1-2.7-8.5c-3.4-0.4-6.3-0.8-8.5-1.1l-28.4-12.7c-0.5-0.2-1.2,0-1.4,0.5c0,0,0,0,0,0l-1.8,4.4
		c-3.2,1.5-5.7,2.2-7.7,2.2c-1.6,0-3.8-0.6-6.7-1.9l0,0c-1.1-0.5-2.4,0-2.9,1.1C28.9,248.7,28.9,248.7,28.9,248.8z"/>
</g>
<path id="Skirt" class="st5" d="M152.7,221.3c24.4-7,47.5-7,69.3,0c7.6,34.6,26,48.3,29.2,101.4c-36.8,18.3-82.3-13.1-120.2,4.8
	C120.2,302.5,135.4,242.3,152.7,221.3z"/>
<path id="Skin" class="st0" d="M272,211.9l42.5-6.4c8.4-4.8,16.2-8.1,23.3-9.8c2-0.1,5.2,0.6,0.5,4.6c-4.7,4-9.5,8.4-8.6,10.5
	s5.3,1.2,6.1,4.4c0.5,2.1-6.7,2.6-21.6,1.4l-34.3,14L272,211.9z M116.9,175.3l20.4,10c-32.4,34.2-49.6,52.3-51.9,54.2
	c-5,4.5-4.3,15.2-4.5,20.8c-8.1-0.3-2-10.9-12.3-11.1c-9.4-0.2-18.4,3.4-24.6-6.3c-0.8-1.2-0.7-4.3,3.1-4.8c9.6-1.4,24.1-4.9,26.9-7
	C77.8,228.1,92.1,209.5,116.9,175.3z"/>
<path id="Coat-Back" class="st6" d="M218.3,116.9l9.5,0.9c14.7,24.3,10.5,72.2,22.1,81.8c10.9,9.1,30.1,8.3,53.1,6.4l2.6,16
	c-24.6,15.4-69.8,21.8-83.7,7.5C199.8,206.6,208.8,148.6,218.3,116.9z"/>
<path id="Shirt" class="st7" d="M148.4,219.4c36.4,9.8,63.2,16.9,80.3,21.5c3.7,1,4.4-4.5,4.6-7.3c2.1-32.3-13-71.7-1.3-115.2
	l-22.2-9.8C182.4,134.1,165.7,170,148.4,219.4z"/>
<path id="Coat-Front" class="st8" d="M148.7,186.3c-24.2,24.9-43.6,42.3-58.3,52.2l-16-7.8c28.7-63.8,73.3-104.6,133.8-122.4
	l0.3,0.1l8.9,2.4c2,75.9-4.9,124.3-20.5,145.2l-72.3-19.4C130.4,219.7,138.9,202.6,148.7,186.3z"/>
</svg>
