<?xml version="1.0" encoding="utf-8"?>
<!-- Generator: Adobe Illustrator 22.0.0, SVG Export Plug-In . SVG Version: 6.00 Build 0)  -->
<svg version="1.1" id="Layer_1" xmlns="http://www.w3.org/2000/svg" xmlns:xlink="http://www.w3.org/1999/xlink" x="0px" y="0px"
	 viewBox="0 0 380 480" style="enable-background:new 0 0 380 480;" xml:space="preserve">
<style type="text/css">
	.st0{fill:#57331F;}
	.st1{fill:#191847;}
	.st2{fill:#3D2216;}
	.st3{fill:#E4E4E4;}
	.st4{fill:#222831;}
	.st5{fill:#35393F;}
	.st6{fill:#16A58A;}
	.st7{fill:#32E0C4;}
</style>
<title>humaaans/standing-2</title>
<desc>Created with Sketch.</desc>
<g id="Head_x2F_Front_x2F_Short-Beard" transform="translate(85.439497, 0.000000)">
	<g id="Head" transform="translate(56.316359, 32.329762)">
		<path class="st0" d="M42.6,54c-4.8-5.6-8.1-12.6-7.5-20.3c1.6-22.3,32.6-17.4,38.7-6.1c6,11.3,5.3,39.8-2.5,41.9
			c-3.1,0.8-9.8-1.2-16.5-5.2l4.2,30H34L42.6,54z"/>
	</g>
	<path id="Hair" class="st1" d="M112.4,68.5c1,13.3,3.5,20,7.6,20c6.2,0,11.4-3.9,14.1-3.9c2,0,1.5,2.5,0.2,4.3
		c-1.1,1.5-6.3,3-6.3,5.3c0,2.3,4.2,0.5,4.2,1.9c0,2.3,0.7,6.6-3.3,6.6c-4,0-15.6-1.5-17.6-7.5c-1.3-3.9-2.1-11.9-2.5-24
		c-0.2,0-0.5,0-0.7,0c-3.5,0-6.3,2.8-6.3,6.3c0,1.8,0.7,3.3,1.9,4.5c-1.4,2-3.1,4.2-4.9,6.4c-7-4.2-12.2-16.5-5.3-28.2
		c1.9-5.8,6.2-8.9,11.2-10.3c4.1-1.7,8.3-1.9,11.9-0.9c7,0.6,13.3,2.7,15.1,4c0,6.6-1.3,8.6-12.3,8.4
		C116.6,62.8,114.5,65.2,112.4,68.5z"/>
</g>
<polygon id="Leg" class="st2" points="173.7,212.8 224.9,342.3 259.3,451.8 272.8,451.8 220.3,212.8 "/>
<path id="Leg_1_" class="st0" d="M163.4,212.8c-0.5,45.5-8.5,106.8-9.8,109.7c-0.8,1.9-30.1,26-87.7,72.2l9.3,10
	c68-39.6,103.5-62.1,106.7-67.4c4.7-7.9,20.1-80.9,32.4-124.4H163.4z"/>
<g id="Accessories_x2F_Shoe_x2F_Flat-Sneaker" transform="translate(53.709121, 197.107258) rotate(50.000000) translate(-53.709121, -197.107258) translate(21.900806, 176.249347)">
	<path id="shoe" class="st3" d="M187.6,137.2c-1.2,3.1-1.8,5.4-1.8,7c0,1.9,0.3,4.6,0.9,8.2c2.2,0,21.8,0,58.8,0
		c1.5-5.1,0.6-7.8-2.6-8.2s-6-0.8-8.2-1.1L207.5,131c-0.5-0.2-1.1,0-1.4,0.5c0,0,0,0,0,0l-1.8,4.3c-3,1.4-5.5,2.1-7.4,2.1
		c-1.5,0-3.7-0.6-6.4-1.9h0c-1-0.5-2.3,0-2.8,1C187.7,137.1,187.7,137.2,187.6,137.2z"/>
</g>
<g id="Accessories_x2F_Shoe_x2F_Flat-Sneaker_1_" transform="translate(216.922274, 207.536214)">
	<path id="shoe_1_" class="st3" d="M36.8,239.3c-1.2,3.1-1.8,5.4-1.8,7c0,1.9,0.3,4.6,0.9,8.2c2.2,0,21.8,0,58.8,0
		c1.5-5.1,0.6-7.8-2.6-8.2c-3.3-0.4-6-0.8-8.2-1.1L56.6,233c-0.5-0.2-1.1,0-1.4,0.5c0,0,0,0,0,0l-1.8,4.3c-3,1.4-5.5,2.1-7.4,2.1
		c-1.5,0-3.7-0.6-6.4-1.9l0,0c-1-0.5-2.3,0-2.8,1C36.8,239.2,36.8,239.2,36.8,239.3z"/>
</g>
<polygon id="Pant" class="st4" points="208.2,440.6 272.6,433.6 224.8,212.8 167.1,212.8 "/>
<path id="Pant_1_" class="st5" d="M79.3,378.5l42.3,50c44.5-48.6,70.5-80.4,77.9-95.2c7.4-14.8,14-55,19.9-120.6h-65
	c-3.2,57.7-5.4,87.8-6.5,90.5S123.9,331,79.3,378.5z"/>
<path id="Skin" class="st0" d="M265,199.8l29.5,28.8c8.6,3.7,15.6,7.7,21.1,12.1c1.2,1.5,2.6,4.3-3.2,3.1c-5.8-1.3-12-2.4-13.1-0.5
	s2.1,4.8,0.1,7.3c-1.3,1.6-5.9-3.6-13.6-15.7l-30.7-18.1L265,199.8z M120.5,173.7l22.8,0.1c-17.4,56.4-26.6,85.9-27.7,88.5
	c-2.4,6,2.7,15.1,4.9,20c-7.1,3.2-6.4-8.6-15.3-4.4c-8.2,3.8-14.4,10.7-23.9,4.9c-1.2-0.7-2.4-3.4,0.6-5.5
	c7.7-5.3,18.7-14.5,20.2-17.5C104.2,255.6,110.3,226.9,120.5,173.7z"/>
<path id="Clothes-Back" class="st6" d="M190.1,109l9-1.5c14.2,50.2,87.2,84.4,91.7,103.2c1.6,6.9-3.3,10.4-0.8,12.5l-11.7,8.6
	c-2-2.3-6.2,1.9-15.1-1C254.4,227.7,190.1,168.4,190.1,109z"/>
<path id="Clothes-Front" class="st7" d="M205.3,115.6c-1,66.5,37.4,83.4,28.8,110.1c-7.1,22-74.7,45.7-86.4,24.1
	c-4.7-8.7-6.9-19.3-7.1-30.8c-3,8.8-5.4,16.4-7.1,22.8c-3,11-14.6,12.7-14.6,17l-15.3-4.2c1-5.8-6.2-8.6-4.3-21.4
	c8.7-57.6,32-99.3,70-125.2l0.4-5.6c0.2-2.3,2.2-4,4.5-3.9l28.1,2c2.3,0.2,4,2.2,3.9,4.5L205.3,115.6z"/>
</svg>
