<?xml version="1.0" encoding="utf-8"?>
<!-- Generator: Adobe Illustrator 22.0.0, SVG Export Plug-In . SVG Version: 6.00 Build 0)  -->
<svg version="1.1" id="Layer_1" xmlns="http://www.w3.org/2000/svg" xmlns:xlink="http://www.w3.org/1999/xlink" x="0px" y="0px"
	 viewBox="0 0 380 400" style="enable-background:new 0 0 380 400;" xml:space="preserve">
<style type="text/css">
	.st0{fill:#B28B67;}
	.st1{fill:#191847;}
	.st2{fill:#C5CFD6;}
	.st3{fill:#037A63;}
	.st4{fill:#049B7E;}
	.st5{fill:#E4E4E4;}
	.st6{fill:#DDE3E9;}
	.st7{fill:#2F3676;}
	.st8{fill-opacity:0.1;}
	.st9{fill:#FFFFFF;fill-opacity:0.2;}
</style>
<title>humaaans/sitting-4</title>
<desc>Created with Sketch.</desc>
<g id="Head_x2F_Front_x2F_Curly" transform="translate(82.000000, 0.000000)">
	<g id="Head" transform="translate(54.000000, 31.000000)">
		<path class="st0" d="M59.7,58.5c4.6-5.4,7.7-12,7.2-19.5c-1.5-21.4-31.3-16.7-37.1-5.9s-5.1,38.2,2.4,40.1c3,0.8,9.3-1.1,15.8-5
			L44,97h24L59.7,58.5z"/>
	</g>
	<path id="hair" class="st1" d="M73.2,49.2c0.5-1.7,1.8-3.2,3.6-3.7c0.4-0.1,0.9-0.2,1.3-0.1c0.2,0,0.2,0.1,0.3-0.1
		c0.1-0.1,0.1-0.3,0.1-0.4c0.1-0.3,0.2-0.6,0.3-0.9c0.4-1,1-1.9,1.8-2.6C82,40,84,39,86,38.8c1.1-0.1,2.2,0.1,3.2,0.4
		c0.5,0.2,1.1,0.4,1.6,0.7c0.2,0.1,0.6,0.5,0.8,0.4c0.2,0,0.5-0.4,0.6-0.6c1.7-1.3,3.8-1.8,5.9-1.8c2.4,0,4.7,0.1,6.7,1.6
		c0.4,0.3,0.8,0.6,1.2,1c0.2,0.2,0.4,0.4,0.6,0.6c0.1,0.1,0.2,0.2,0.3,0.4c0.2,0.2,0.2,0.3,0.4,0.1c1-0.6,2.1-0.9,3.2-0.7
		c0.7,0.1,1.3,0.3,1.9,0.5c0.2,0.1,0.7,0.4,0.9,0.5c0.2,0,0.7-0.3,0.9-0.4c1.2-0.5,2.6-0.6,3.9-0.4c1.3,0.2,2.6,0.7,3.8,1.5
		c0.5,0.4,1,0.7,1.4,1.3c0.2,0.2,0.3,0.5,0.5,0.7c0.1,0.1,0.3,0.3,0.4,0.4c0-0.1,1.5-0.7,1.6-0.7c0.8-0.2,1.5-0.2,2.3,0.1
		c1.4,0.5,2.6,1.5,3.6,2.5c0.5,0.5,0.9,1.1,1.3,1.8c0.2,0.3,0.3,0.6,0.5,0.9c0.1,0.2,0.1,0.3,0.2,0.5c0.1,0.2,0.2,0.2,0.4,0.3
		c1.1,0.4,2.2,1.1,3,2c0.8,0.9,1.3,2,1.5,3.2c0,0.1,0,0.4,0.1,0.4c0.1,0.1,0.3,0,0.4,0c0.3,0,0.6,0.1,0.9,0.2
		c0.5,0.1,1.1,0.3,1.6,0.6c1.9,1,3.3,2.8,4,4.8c0.7,2.1,0.7,4.5-0.2,6.6c-0.1,0.3-0.3,0.7-0.5,1c-0.1,0.2-0.2,0.2-0.1,0.4
		c0.1,0.2,0.2,0.4,0.3,0.7c0.3,0.7,0.6,1.5,0.7,2.2c0.2,1.3,0.4,2.6,0.1,3.8c-0.1,0.6-0.3,1.2-0.6,1.7c-0.1,0.3-0.3,0.5-0.5,0.8
		c-0.1,0.1-0.2,0.2-0.3,0.3c-0.1,0.1-0.1,0.1-0.2,0.2c-0.1,0.2-0.2,0-0.1,0.3c0.1,0.4,0.3,0.7,0.5,1c0.1,0.4,0.3,0.7,0.4,1.1
		c0.2,0.7,0.4,1.5,0.6,2.2c0.2,1.5,0.2,3-0.5,4.4c-0.3,0.6-0.7,1.1-1.2,1.5c-0.3,0.2-0.5,0.4-0.8,0.5c-0.1,0.1-0.3,0.1-0.4,0.2
		c-0.1,0.2,0,0.5,0.1,0.6c0.2,1.5,0.3,3.1-0.1,4.5c-0.4,1.3-1.3,2.5-2.5,3.3c-2.3,1.5-5.3,1.4-7.7,0.2c-0.6-0.3-1.2-0.7-1.7-1.2
		c-1.3,1.8-4,1.7-5.9,1.2c-2.4-0.6-4.3-2.3-5.4-4.5c-1.5,1.8-4.7,1.2-5.7-0.8c-0.3-0.5-0.4-1-0.5-1.6c0-0.3,0-0.6,0-0.9
		c0-0.4-0.3-0.7-0.4-1.1c-0.3-0.7-0.4-1.4-0.4-2.1c0-0.4,0-0.8,0.1-1.1c0-0.3-0.1-0.7-0.1-1c0.6,0.1,1.4-0.1,1.9-0.2
		c0.6-0.2,1.1-0.6,1.5-1.1c0.9-1,1.5-2.3,1.9-3.5c0.9-2.8,0.5-6.1-2.3-7.7c-1.3-0.7-5.2-0.7-6.8-0.4c-1.6,0.4-3.5,4-3.6,4.3
		c-0.1,0.2,0,0.5-0.2,0.6c-0.4,0.3-1.1-0.2-1.4-0.5c-0.5-0.5-0.9-1.1-1.3-1.7c-0.7-1.3-1.3-2.8-1.7-4.2c-0.3-1.1-0.5-2.3-0.9-3.4
		c-0.4-1.1-1.1-2.1-2.1-2.7c-1.1-0.7-2.4-1-3.6-1.5c-1.2-0.4-2.4-0.9-3.3-1.8c-0.2-0.2-0.4-0.4-0.6-0.6c-0.1-0.2-0.3-0.5-0.5-0.6
		c-0.3-0.2-0.8,0.3-1,0.5c-1.3,0.8-2.4,2-3.3,3.3c-0.9,1.3-1.6,2.5-2.2,3.9c-0.4,1.1-0.7,2.4-1.5,3.3c-0.3,0.4-2.9,0.6-3.7,0.3
		s-1.8-1.2-2-1.8c-0.3-0.6-0.4-1.2-0.2-1.8c0.1-0.4,0.2-0.7,0.3-1.1c0.1-0.3,0.1-0.6,0.3-0.9c0.3-0.5,0.7-0.9,1.3-1
		c-0.6-0.5-1.1-1.2-1.4-1.9c-0.4-0.8-0.6-1.7-0.7-2.5c-0.1-0.7,0-1.4,0.4-1.9c0.4-0.6,1.1-1,1.7-1.4c-0.9-0.7-1.7-1.6-2.3-2.5
		C73.4,53.7,72.6,51.4,73.2,49.2z"/>
</g>
<g id="Objects_x2F_Seat_x2F_Cube-2" transform="translate(10.000000, 42.000000)">
	<path id="Seat" class="st2" d="M261,211H146c-8.8,0-16,7.2-16,16v92c0,8.8,7.2,16,16,16h115c8.8,0,16-7.2,16-16v-92
		C277,218.2,269.8,211,261,211z M245,239c2.2,0,4,1.8,4,4v60c0,2.2-1.8,4-4,4h-83c-2.2,0-4-1.8-4-4v-60c0-2.2,1.8-4,4-4H245z"/>
</g>
<path id="Skin" class="st0" d="M68.5,373.7c12.8-28.4,22.1-53.1,25.8-66.1c6.4-22.3,11.2-41.9,12.4-49.3
	c2.9-17.5-22.5-18.5-25.8-9.8c-5.1,13.1-13.9,56.4-24.6,121.6L68.5,373.7z M217.1,284.7c-11.8-4.6-52.9-19.2-72.8-23.3
	c-5.7-1.2-11.2-2.3-16.4-3.3c-15.5-3-23.5,24.9-8.6,27.1c37.1,5.3,89.6,10.8,94.1,11.5C219.7,297.5,224.5,287.6,217.1,284.7z"/>
<path id="Leg-Back" class="st3" d="M118.4,250.4L182,218v-7h-7.6c-61.5,15.7-93,25.7-94.3,30.1c0,0,0,0.1,0,0.1c0,0-0.1,0.1-0.1,0.1
	C67.8,258.2,60.5,340,58.1,346.2l23.4,3.5c8.9-33.1,37.5-56.2,36.8-95.9C118.4,252.6,118.5,251.5,118.4,250.4z"/>
<path id="Leg-Front" class="st4" d="M176.7,269.6c5.8-1.2,11.2-2.2,15.8-3c29.6-5.2,38.2-21,33.1-55.6h-54.6
	c-8.9,2.6-55.2,22-79.3,32.3c-15.9,6.8-10.9,31.5-1.9,37.9c0,0.4,0.2,0.7,0.5,0.8c48.5,20.1,86.8,9.5,99.6,12.9l5.9-18.7
	L176.7,269.6z"/>
<g id="Accessories_x2F_Shoe_x2F_Flat-Sneaker" transform="translate(143.959294, 93.331820) rotate(64.000000) translate(-143.959294, -93.331820) translate(113.459294, 73.331820)">
	<path id="shoe" class="st5" d="M230.1,40.4c1.7-2.7,3.1-4.5,4.2-5.4c1.4-1.1,3.7-2.5,6.8-4.2c1.3,1.6,12.9,16.5,34.7,44.4
		c-2.9,4.1-5.5,5.1-7.7,2.8c-2.2-2.3-4.1-4.1-5.7-5.6l-25.3-13.5c-0.5-0.3-0.7-0.9-0.4-1.4c0,0,0,0,0,0l2.2-3.8
		c-0.7-3.1-1.7-5.4-2.8-6.9c-0.9-1.2-2.6-2.4-5.2-3.7v0c-1-0.5-1.4-1.7-0.9-2.7C230.1,40.5,230.1,40.5,230.1,40.4z"/>
</g>
<g id="Accessories_x2F_Shoe_x2F_Flat-Sneaker_1_" transform="translate(263.000000, 132.000000)">
	<path id="shoe_1_" class="st5" d="M-188.7,236.4c1.1,3,1.7,5.2,1.7,6.7c0,1.8-0.3,4.4-0.9,7.9c-2.1,0-20.9,0-56.4,0
		c-1.5-4.8-0.6-7.5,2.5-7.8c3.2-0.4,5.8-0.7,7.9-1l26.2-11.7c0.5-0.2,1.1,0,1.3,0.5c0,0,0,0,0,0l1.7,4.1c2.9,1.4,5.3,2,7.1,2
		c1.5,0,3.5-0.6,6.2-1.8l0,0c1-0.5,2.2,0,2.7,1C-188.7,236.3-188.7,236.4-188.7,236.4z"/>
</g>
<path id="Skin_1_" class="st0" d="M124,195.1l-28.3,27.6c-8.2,3.5-15,7.4-20.3,11.6c-1.2,1.4-2.5,4.2,3.1,2.9
	c5.6-1.2,11.5-2.3,12.5-0.5c1,1.8-2,4.6-0.1,7c1.3,1.6,5.6-3.4,13-15.1l29.5-17.4L124,195.1z M249.7,199l-20.9,0.1
	c12.9,41.7,19.9,63.8,20.9,66.3c2.3,5.7-2.6,14.5-4.7,19.2c6.8,3.1,6.1-8.3,14.7-4.2c7.9,3.7,13.8,10.3,22.9,4.7
	c1.1-0.7,2.3-3.3-0.6-5.3c-7.4-5-18-13.9-19.4-16.8C260.6,258.9,256.3,237.6,249.7,199z"/>
<path id="Coat-Back" class="st1" d="M190.3,111.3l-8.6-1.5c-14.9,37.2-40.9,71-78,101.4l28,34.1C168.8,202,191.7,157.4,190.3,111.3z
	"/>
<path id="Shirt" class="st6" d="M228,220h-77c17.8-43.4,26.8-80.2,26.8-110.5L201,106C219.2,135.4,224.4,171.5,228,220z"/>
<path id="Coat-Front" class="st7" d="M201.5,106C201.5,106,201.5,106,201.5,106l-1.5,0c-1.8,0.1-4.6,0.2-8.3,0.3l-5.6,16
	c-0.6,19.6-4.1,59-10.4,118.2h50.5c-0.1,4.1-0.4,8.2-0.7,12.4H263C257.4,189.7,236.9,140.7,201.5,106C201.5,106,201.5,106,201.5,106
	z"/>
<path id="Shade" class="st8" d="M222.8,188.2c-1.4,25.5-5,43.1-10.8,52.8h14.1C226.7,222.6,225.6,205.1,222.8,188.2z"/>
<polygon id="Light" class="st9" points="214.9,210 190,198.4 190,210 "/>
</svg>
